<?xml version="1.0" encoding="UTF-8" standalone="no"?> <!-- Created with Vectornator for iOS (http://vectornator.io/) --><!DOCTYPE svg PUBLIC "-//W3C//DTD SVG 1.1//EN" "http://www.w3.org/Graphics/SVG/1.1/DTD/svg11.dtd">
<svg height="100%" xmlns:xlink="http://www.w3.org/1999/xlink" xmlns="http://www.w3.org/2000/svg" xml:space="preserve" width="100%" xmlns:vectornator="http://vectornator.io" version="1.1" viewBox="0 0 2820 1576">

<g id="knots">
<path d="M128.101+1.40681C133.633+1.91005+230.289+3.87995+232.889+4.2955C207.061+29.4062+169.228+60.3408+137.582+101.098C118.66+88.3675+99.3738+77.0924+74.9949+70.5483C73.6614+70.1718+125.556+9.04807+128.101+1.40681Z" />
<path d="M1076.13+6.59957C1081.66+7.1028+1186.71+7.53482+1189.31+7.95037C1131.58+53.0964+1095.16+87.0117+1082.57+101.219C1073.63+93.4313+1050.49+80.8353+1028.26+66.8645C1033.53+59.7611+1060.33+27.6806+1076.13+6.59957Z" />
<path d="M2020.15+6.57767C2025.68+7.0809+2116.83+6.14121+2119.43+6.55676C2094.56+38.5147+2073.34+54.952+2035.91+91.249C2008.52+79.3867+2000.31+75.052+1975.2+60.6785C1973.86+60.302+2001.74+26.8445+2020.15+6.57767Z" />
<path d="M1736.54+1563.07C1731+1562.57+1620.41+1563.01+1617.81+1562.6C1647.36+1548.56+1694.94+1503.97+1731.5+1461.88C1756.49+1473.37+1769.88+1479.12+1793.13+1488.42C1794.46+1488.79+1754.94+1542.81+1736.54+1563.07Z" />
<path d="M797.576+1568.44C792.045+1567.94+721.032+1572.61+704.29+1565.5C718.258+1556.68+757.042+1521.35+795.825+1477.7C820.419+1493.28+833.888+1497.14+857.136+1506.43C858.469+1506.81+815.983+1548.17+797.576+1568.44Z" />
<path d="M1420.43+790.166C1492.78+794.346+1596.63+822.158+1630.61+847.259C1627.12+848.444+1605.69+867.328+1589.84+878.128C1552.42+868.31+1471.74+844.856+1415.27+842.695C1413.68+831.274+1416.88+808.289+1420.43+790.166Z" />
<path d="M483.482+795.501C503.569+795.37+544.794+787.566+551.453+788.745C600.95+797.51+677.65+831.739+699.543+844.958C696.052+846.144+642.199+885.778+626.089+895.967C569.488+877.564+534.537+865.253+482.781+857.507C481.189+846.086+481.891+818.51+483.482+795.501Z" />
<path d="M2359.7+777.994C2458.11+779.334+2532.48+810.155+2567.41+841.892C2573.31+855.495+2551.03+879.054+2533.41+882.712C2472.18+868.214+2403.25+852.356+2352.46+845.111C2353.82+831.053+2355.9+790.804+2359.7+777.994Z" />
<path d="M1412.21+772.489C1412.19+680.51+1454.35+597.059+1475.06+560.445C1476.24+563.935+1503.81+595.628+1514.91+611.943C1487.59+671.21+1480.66+723.334+1474.8+780.467C1451.3+776.039+1425.75+774.214+1412.21+772.489Z" />
<path d="M471.706+776.643C472.881+711.314+491.567+610.347+516.499+551.842C533.726+572.922+546.794+582.422+558.082+601.721C541.463+651.612+540.84+723.131+534.362+773.66C515.06+772.179+488.929+774.264+471.706+776.643Z" />
<path d="M2351.04+754.578C2350.1+675.272+2382.36+586.738+2417.39+553.994C2429.84+571.512+2444.14+587.186+2456.13+606.549C2433.09+664.189+2419.27+711.222+2412.36+757.793C2400.94+759.384+2372.25+755.496+2351.04+754.578Z" />
<path d="M1388.82+782.612C1317.98+774.475+1217.72+757.557+1163.56+728.819C1181.77+718.644+1213.2+694.878+1228.57+684.248C1285.38+705.555+1343.6+721.135+1394.13+727.613C1395+745.787+1393.61+765.345+1388.82+782.612Z" />
<path d="M451.058+776.07C382.395+775.089+290.342+755.704+233.615+731.335C237.106+730.149+288.339+693.509+311.721+679.573C346.554+698.97+402.284+713.885+455.027+717.855C456.618+729.276+451.554+767.114+451.058+776.07Z" />
<path d="M2333.09+762.712C2247.64+759.104+2181.61+738.144+2127.74+707.342C2140.43+700.089+2158.81+684.548+2176.41+672.374C2226.65+688.159+2284.14+709.121+2333.6+712.995C2333.6+724.388+2333.87+747.952+2333.09+762.712Z" />
<path d="M1393.67+806.721C1404.68+868.935+1370.49+932.701+1338.27+995.53C1321.39+966.797+1311.66+964.389+1299.48+943.268C1325.27+892.475+1334.83+850.247+1341.31+799.717C1352.73+798.126+1380.86+802.924+1393.67+806.721Z" />
<path d="M455.043+796.967C469.985+867.12+422.244+986.047+404.837+1019.88C403.651+1016.39+361.711+975.322+358.053+957.699C379.935+905.948+386.89+857.683+390.858+798.97C402.279+797.379+442.233+793.17+455.043+796.967Z" />
<path d="M2336.89+782.466C2333.11+841.035+2314.92+916.621+2283.75+993.965C2271.1+977.427+2258.77+961.146+2241.46+937.328C2256.56+880.862+2269.29+829.751+2278.09+779.284C2300.63+779.22+2321.14+781.909+2336.89+782.466Z" />
<path d="M86.7326+986.406C84.4774+985.054+136.887+1014.87+145.004+1014.42C184.717+954.965+293.453+888.452+367.826+860.826C371.882+849.551+378.019+793.329+378.922+795.133C301.603+788.997+122.725+909.336+86.7326+986.406Z" />
<path d="M1030.02+972.398C1027.77+971.045+1077.41+1000.32+1085.53+999.87C1130.97+940.136+1218.16+869.293+1310.12+855.004C1314.18+843.728+1321.21+814.833+1319.1+790.52C1229.25+803.753+1087.09+904.733+1030.02+972.398Z" />
<path d="M1972.46+972.62C1970.21+971.268+2007.39+991.659+2026.89+1002.54C2081.74+916.819+2153.38+867.827+2244.53+855.564C2248.59+844.289+2256.77+790.723+2257.67+792.527C2096.69+832.467+2016.89+900.054+1972.46+972.62Z" />
<path d="M672.414+1152.8C671.062+1155.05+698.956+1107.52+698.503+1099.41C644.114+1057.23+574.798+967.154+549.572+891.529C538.297+887.473+470.949+879.398+472.753+878.495C510.148+997.123+571.105+1101.5+672.414+1152.8Z" />
<path d="M1616.68+1155.26C1615.33+1157.51+1640.07+1096.11+1639.62+1088C1557.86+1023.98+1538.12+996.6+1484.53+872.17C1473.25+868.113+1425.54+867.043+1427.34+866.141C1424.54+972.058+1520.41+1081.58+1616.68+1155.26Z" />
<path d="M2559.46+1150.32C2558.11+1152.57+2587.1+1100.04+2586.64+1091.92C2523.77+1040.72+2476.13+986.948+2444.72+882.981C2435.64+881.959+2396.2+871.211+2372.64+868.143C2357.8+945.486+2467.96+1095.02+2559.46+1150.32Z" />
<path d="M858.64+597.249C860.883+598.622+788.182+567.902+780.061+568.283C743.956+614.696+662.235+681.195+558.164+706.854C554.008+718.092+550.152+768.886+549.265+767.074C681.074+753.489+805.479+646.241+858.64+597.249Z" />
<path d="M1782.68+578.619C1784.93+579.991+1743.11+555.66+1734.99+556.041C1648.57+649.619+1613.49+675.129+1508.71+700.237C1504.55+711.476+1498.35+766.257+1499+773.485C1612.88+767.119+1732.85+675.903+1782.68+578.619Z" />
<path d="M2726.44+582.087C2728.68+583.46+2679.57+558.17+2671.45+558.551C2619.36+616.197+2539.6+670.622+2445.09+697.384C2442.32+716.75+2440.02+739.805+2438.18+756.865C2563.13+737.934+2671.47+644.773+2726.44+582.087Z" />
<path d="M261.412+415.876C262.755+413.616+234.568+465.981+235.053+474.096C291.289+528.318+355.488+591.495+391.333+688.512C400.786+688.012+457.817+696.545+456.017+697.454C431.112+565.606+332.078+477.061+261.412+415.876Z" />
<path d="M1202.83+420.251C1204.18+417.991+1184.72+462.789+1185.2+470.905C1240.17+538.087+1311.22+633.866+1330.72+697.198C1342.01+701.209+1401.7+709.704+1399.9+710.614C1365.93+594.946+1288.92+490.399+1202.83+420.251Z" />
<path d="M2148.98+414.217C2137.07+429.497+2120.51+454.1+2114.55+465.235C2187.59+532.544+2239.65+588.206+2265.56+681.419C2289.13+687.11+2308.03+689.437+2330.82+693.834C2309.81+534.331+2219.68+465.99+2148.98+414.217Z" />
<path d="M2144.49+1319.43C2145.83+1317.17+2114.84+1371.81+2115.33+1379.92C2168.02+1424.88+2228.52+1477.6+2251.29+1564.85C2260.93+1565.12+2322.41+1561.79+2320.61+1562.7C2284.19+1471.96+2219.66+1365.98+2144.49+1319.43Z" />
<path d="M1204.24+1319.73C1205.58+1317.47+1175.97+1378.04+1176.46+1386.15C1230.14+1440.19+1269.14+1481.11+1301.59+1563.35C1312.88+1567.36+1368.64+1562.81+1366.84+1563.72C1367.99+1505.42+1293.06+1384.2+1204.24+1319.73Z" />
<path d="M272.546+1331.71C273.89+1329.45+241.861+1388.1+242.346+1396.21C302.784+1444.41+348.962+1487.17+384.624+1565.58C395.915+1569.59+453.641+1568.39+451.841+1569.3C427.714+1454.56+346.226+1392.12+272.546+1331.71Z" />
<path d="M670.872+253.681C669.518+255.935+696.752+197.62+696.307+189.502C650.105+150.208+591.454+105.962+549.941+8.32696C538.67+4.25992+478.984+9.79536+480.789+8.89475C520.652+158.257+625.503+227.664+670.872+253.681Z" />
<path d="M1622.45+245.96C1621.1+248.214+1646.29+192.054+1645.84+183.936C1593.33+136.706+1533.35+76.971+1515.09+8.33361C1503.82+4.26658+1447.61+6.96762+1449.41+6.06701C1449.66+85.4263+1555.49+211.74+1622.45+245.96Z" />
<path d="M2566.4+229.786C2565.05+232.04+2586.7+197.847+2586.25+189.729C2533.05+129.025+2501.97+92.1506+2462.8+9.5192C2451.53+5.45216+2393.28+8.28086+2395.09+7.38025C2420.22+124.288+2498.66+201.096+2566.4+229.786Z" />
<path d="M2685.71+5.77305C2679.79+6.80197+2632.15+3.58215+2632.69+8.20661C2616.55+59.3494+2686.54+94.912+2712.39+160.042C2732.58+177.802+2791.8+216.279+2793.96+212.51C2803.9+152.976+2744.94+76.01+2685.71+5.77305Z" />
<path d="M1747.35+6.71764C1741.43+7.74657+1687.97+3.01428+1688.51+7.63873C1685.95+15.7758+1676.81+20.8651+1680.79+27.1775C1708.29+70.7895+1763.96+124.619+1774.42+154.149C1790.55+177.318+1853.15+211.06+1855.3+207.291C1858.92+136.866+1804.39+81.6737+1747.35+6.71764Z" />
<path d="M800.274+5.25666C794.353+6.28559+757.676+4.71241+751.038+8.58637C744.954+13.0134+725.04+24.0821+725.87+27.1247C767.653+93.2261+812.748+129.729+818.011+165.688C838.202+183.448+887.449+204.399+906.812+206.884C913.715+146.028+857.548+78.5467+800.274+5.25666Z" />
<path d="M125.942+1572.77C131.899+1571.97+209.811+1573.66+209.453+1569.02C172.097+1506.22+140.518+1470.58+108.934+1408.8C82.451+1391.83+65.1312+1361.62+41.0305+1372.15C40.0259+1438.01+55.99+1478.75+125.942+1572.77Z" />
<path d="M1086.53+1561.85C1092.49+1561.05+1142.09+1524.01+1141.73+1519.36C1113.15+1474.97+1067.2+1437.91+1039.39+1376.91C1021.24+1364.18+973.924+1341.52+971.626+1345.2C971.638+1401.22+1030.09+1489.35+1086.53+1561.85Z" />
<path d="M2022.9+1567.37C2026.55+1566.89+2049.58+1566.22+2064.53+1566.44C2075.08+1566.6+2081.46+1549.38+2081.32+1547.58C2066.59+1514+2006.55+1453.76+1981.01+1392.35C1960.99+1377.18+1927.41+1348.2+1920.97+1350.05C1921.67+1429.86+1972.98+1495.39+2022.9+1567.37Z" />
<path d="M1731.81+900.308C1725.85+901.093+1675.08+929.506+1675.43+934.149C1713.7+989.717+1749.96+1027.16+1767.29+1095.62C1805.15+1114.14+1820.45+1131.05+1832.54+1135.88C1855.07+1035.19+1793.84+983.256+1731.81+900.308Z" />
<path d="M780.619+914.614C774.661+915.399+725.705+943.794+726.054+948.437C792.502+1008.04+823.659+1076.54+830.782+1102.94C852.139+1114.5+886.548+1137.33+892.776+1137.03C912.329+1030.55+806.426+933.294+780.619+914.614Z" />
<path d="M138.069+665.18C144.025+664.376+200.124+637.467+199.76+632.825C163.926+587.057+135.06+552.732+97.7283+481.588C74.3405+469.652+42.7943+440.101+40.5009+443.786C9.16841+509.471+85.3169+612.45+138.069+665.18Z" />
<path d="M1083.58+660.328C1101.52+655.955+1131.7+639.751+1138.75+626.496C1102.57+578.736+1065.55+520.513+1042.17+471.307C1018.21+453.566+993.739+426.384+978.38+422.476C948.629+476.622+1026.1+586.257+1083.58+660.328Z" />
<path d="M2009.13+648.328C2015.09+647.524+2073.97+617.481+2073.6+612.84C2048.22+571.674+2012.48+552.002+1974.14+462.158C1945.91+449.475+1935.03+444.04+1913.8+436.017C1900.42+505.934+1963.62+591.889+2009.13+648.328Z" />
<path d="M2487.92+467.296C2495.76+488.965+2500.37+501.874+2512.83+519.854C2547.4+491.72+2635.46+434.989+2673.26+427.143C2682.48+402.703+2701.29+363.896+2697.64+361.551C2640.97+357.526+2562.6+411.95+2487.92+467.296Z" />
<path d="M2483.96+1380.51C2484.68+1386.47+2504.42+1431.42+2509.07+1431.12C2550.24+1402.37+2636.89+1356.45+2664.45+1341.42C2680.43+1319.98+2701.44+1285.01+2704.65+1275.63C2659.39+1263.14+2554.3+1318.93+2483.96+1380.51Z" />
<path d="M1542.62+1367.23C1543.34+1373.2+1576.56+1426.14+1581.21+1425.84C1631.3+1397.27+1661.85+1366.71+1718.45+1338.14C1731.47+1314.09+1762.67+1268.34+1759.02+1265.99C1698.4+1251.98+1625.26+1298.08+1542.62+1367.23Z" />
<path d="M596.303+1378.33C597.024+1384.3+626.998+1439.24+631.644+1438.94C683.591+1407.06+767.052+1356.13+788.872+1353.36C807.569+1328.41+832.846+1293.43+823.491+1277.15C769.456+1258.46+660.023+1332.6+596.303+1378.33Z" />
<path d="M592.839+464.448C597.364+476.339+619.244+518.611+623.89+518.312C653.939+489.518+708.555+445.83+774.936+423.384C786.16+396.991+807.762+362.896+804.11+360.551C729.7+354.16+647.343+419.88+592.839+464.448Z" />
<path d="M1544.44+462.073C1545.16+468.039+1563.64+503.812+1570.19+514.928C1611.38+495.075+1648.93+461.952+1703.28+436.333C1722.21+409.398+1751.79+360.132+1748.14+357.787C1696.47+349.618+1617.65+406.56+1544.44+462.073Z" />
<path d="M2220.59+166.299C2219.63+160.367+2196+116.29+2191.37+116.778C2137.97+157.415+2105.56+174.768+2049.43+207.874C2030.94+233.44+2008.58+268.364+2005.85+272.701C2080.26+299.389+2193.44+209.897+2220.59+166.299Z" />
<path d="M1268.59+180.983C1267.63+175.051+1236.91+129.136+1232.28+129.625C1165.75+170.85+1145.82+196.743+1084.19+218.75C1072.28+240.288+1040.37+284.151+1044.11+286.345C1138.51+310.61+1204.25+241.406+1268.59+180.983Z" />
<path d="M319.157+181.105C317.698+164.733+309.324+137.81+287.854+122.897C268.572+128.723+170.357+239.352+130.693+214.983C122.33+237.906+97.8547+277.559+101.6+279.753C172.19+302.296+248.276+239.561+319.157+181.105Z" />
<path d="M343.157+1104.48C342.193+1098.55+305.481+1039.82+300.851+1040.31C258.07+1084.1+200.36+1120.93+155.087+1144.82C139.172+1175.68+125.484+1210.8+129.229+1213C245.657+1207+280.973+1156.24+343.157+1104.48Z" />
<path d="M1272.17+1080.86C1271.21+1074.93+1243.22+1033.16+1238.59+1033.65C1198.02+1078.35+1133.21+1108.83+1092.95+1125.6C1074.53+1153+1066.73+1174.09+1058.76+1184.92C1158.38+1186.79+1201.29+1139.32+1272.17+1080.86Z" />
<path d="M2216.77+1085.43C2215.81+1079.5+2185.19+1026.04+2180.56+1026.53C2139.02+1062.29+2087.6+1102.39+2033.19+1119.07C2011.62+1148.44+2002.52+1167.54+2000.88+1183.96C2071.55+1195.19+2167.55+1133.89+2216.77+1085.43Z" />
<path d="M2675.73+916.225C2669.77+917.009+2621.6+944.885+2621.95+949.528C2660.89+1003.81+2692.14+1029.93+2708.54+1088.82C2732.1+1089.84+2771.03+1114.93+2783.84+1116.98C2785.88+1064.22+2726.96+984.847+2675.73+916.225Z" />
<path d="M901.058+498.576C893.443+499.121+830.967+484.756+795.312+441.153C794.222+430.818+823.562+371.891+831.177+368.626C887.997+390.05+900.611+453.143+901.058+498.576Z" />
<path d="M1844.94+485.859C1823.85+489.419+1766.75+460.899+1733.48+428.457C1741.02+414.669+1767.58+376.363+1777.16+364.173C1823.5+387.616+1849.27+419.697+1844.94+485.859Z" />
<path d="M2786.7+486.137C2760.88+488.448+2718+463.559+2689.87+439.127C2688.78+428.792+2711.53+400.853+2723.51+375.491C2774.7+397.151+2780.7+432.192+2786.7+486.137Z" />
<path d="M2789.93+1402.66C2764.51+1400.33+2700.25+1382.72+2675.44+1357.61C2677.78+1348.56+2724.58+1288.97+2732.2+1285.7C2782.58+1331.7+2781.19+1360.08+2789.93+1402.66Z" />
<path d="M1836.69+1393.72C1822.17+1392.22+1773.57+1380.71+1736.99+1345.15C1746.51+1335.63+1770.04+1292.04+1783.57+1276.51C1839.68+1305.05+1832.18+1353.65+1836.69+1393.72Z" />
<path d="M898.332+1410.14C864.386+1395.94+840.832+1389.37+808.961+1357.51C816.231+1342.61+838.393+1299.81+846.008+1296.54C885.496+1313.51+895.204+1363.03+898.332+1410.14Z" />
<path d="M182.575+1285.9C177.147+1304.57+150.343+1375.52+109.949+1391.49C94.6705+1383.68+65.1296+1353.82+53.9229+1335.15C79.0313+1273.7+135.047+1283.87+182.575+1285.9Z" />
<path d="M1115.81+1272.65C1116.36+1280.26+1091.32+1347.48+1058.69+1365.71C1050.58+1363.4+1003.08+1328.66+981.071+1310.52C1042.84+1253.36+1090.33+1267.25+1115.81+1272.65Z" />
<path d="M2050.8+1285.99C2040.64+1313.56+2017.62+1354.25+1991.93+1376.74C1978.55+1374.6+1935.45+1337.4+1927.15+1326.7C1950.43+1276.64+2033.94+1286.53+2050.8+1285.99Z" />
<path d="M2053.16+360.118C2045.92+388.862+2030.65+419.162+1998.55+448.946C1981.2+449.986+1943.91+436.788+1919.3+412.453C1966.61+347.71+2017.69+356.76+2053.16+360.118Z" />
<path d="M1112.66+361.383C1105.68+393.57+1089.26+429.673+1058.47+459.353C1043.1+449.86+1013.62+422.853+990.492+394.179C1037.66+348.848+1090.96+355.734+1112.66+361.383Z" />
<path d="M164.876+373.106C165.422+380.721+136.53+444.263+113.15+466.658C101.704+460.69+54.7072+425.028+51.4417+417.413C88.2521+374.615+113.627+371.127+164.876+373.106Z" />
<path d="M21.8934+164.067C29.5128+163.583+91.7557+184.428+109.952+205.527C110.96+215.87+92.499+258.652+89.5898+266.293C55.0244+265.209+41.9221+246.292+21.8934+164.067Z" />
<path d="M972.835+155.769C980.454+155.285+1050.74+190.348+1063.12+217.38C1064.12+227.723+1024.18+273.748+1017.54+280.164C972.395+245.121+975.133+190.364+972.835+155.769Z" />
<path d="M1919.98+150.386C1927.6+149.901+2007.26+173.275+2025.23+206.053C2026.24+216.396+1991.58+270.186+1983.94+273.39C1926.39+243.96+1921.37+212.237+1919.98+150.386Z" />
<path d="M1917.61+1064.69C1936.21+1069.67+1985.19+1091.43+2010.59+1115.01C2011.59+1125.35+1985.25+1169.12+1978.4+1185.76C1912.64+1139.06+1919.89+1114.57+1917.61+1064.69Z" />
<path d="M963.978+1066.49C980.361+1061.73+1040.62+1092.37+1069.17+1118.79C1070.17+1129.14+1046.1+1167.47+1038.18+1181.22C987.544+1163.45+967.696+1154.23+963.978+1066.49Z" />
<path d="M41.5826+1081.6C69.6949+1085.75+109.688+1102.97+138.598+1132.06C137.016+1141.17+113.668+1199.77+104.365+1208.09C49.3235+1177.41+46.5447+1142.97+41.5826+1081.6Z" />
<path d="M765.255+1192.82C764.72+1185.2+792.827+1141.5+819.218+1113.91C830.489+1118.06+876.179+1148.69+879.434+1156.31C837.329+1204.37+802.921+1191.03+765.255+1192.82Z" />
<path d="M1710.93+1194.3C1705.28+1168.93+1731.45+1138.72+1750.38+1108.91C1760.71+1107.84+1812.51+1144.42+1815.77+1152.04C1779.79+1190.26+1759.25+1189.46+1710.93+1194.3Z" />
<path d="M2651.2+1203.57C2656.32+1180+2677.82+1132.88+2705.98+1105.73C2716.32+1104.65+2767.79+1133.44+2771.04+1141.05C2740.83+1192.28+2700.37+1197.92+2651.2+1203.57Z" />
<path d="M2654.91+272.201C2658.99+263.578+2688.25+202.757+2711.17+185.052C2724.1+187.999+2774.94+220.892+2781.8+228.663C2758.16+284.66+2700.3+291.026+2654.91+272.201Z" />
<path d="M1708.56+273.658C1708.03+266.042+1739.21+200.501+1768.51+178.231C1779.65+183.908+1841.83+227.39+1845.09+235.009C1805.11+289.312+1744.68+284.327+1708.56+273.658Z" />
<path d="M760.225+285.749C759.69+278.133+788.976+207.739+814.973+188.924C827.975+191.411+895.265+223.885+898.519+231.504C877.782+273+820.528+294.312+760.225+285.749Z" />
<path d="M437.89+8.89807C431.234+6.3641+403.028+6.05312+390.035+7.32354C371.974+27.2934+368.386+32.3291+359.515+42.4724C381.714+65.3899+384.264+78.1239+400.277+97.7681C416.754+82.5524+437.739+32.2683+437.89+8.89807Z" />
<path d="M1385.08+9.45609C1378.43+6.92212+1345.44+7.13548+1332.44+8.4059C1322.47+21.9923+1321.84+35.789+1315.89+43.2192C1327.78+56.801+1329.27+68.8992+1343.92+86.3011C1354.53+77.8086+1368.96+36.6281+1385.08+9.45609Z" />
<path d="M2343.28+10.6997C2336.62+8.16571+2303.78+5.90979+2290.79+7.18021C2272.73+27.1501+2275.82+27.2205+2266.95+37.3638C2284.33+60.3426+2289.03+72.0696+2304+85.5208C2317.65+65.0638+2337.29+40.9309+2343.28+10.6997Z" />
<path d="M2373.16+1561.43C2379.8+1563.99+2429.34+1563.6+2442.34+1562.4C2449.94+1549.15+2450.68+1541.79+2458.52+1530.74C2444.78+1516.76+2437.17+1498.86+2418.28+1484.14C2401.6+1504.01+2383.21+1532.23+2373.16+1561.43Z" />
<path d="M1439.46+1561.13C1446.1+1563.7+1497.07+1566.63+1511.6+1561.62C1522.62+1549.59+1519.61+1543.58+1527.62+1529.05C1502.68+1508.97+1498.56+1495.49+1479.02+1472.45C1457.48+1507.02+1446.47+1534.08+1439.46+1561.13Z" />
<path d="M503.52+1568.85C510.164+1571.41+551.133+1570.05+564.133+1568.84C572.441+1551.17+574.517+1538.01+579.364+1530.04C560.31+1509.96+559.269+1500.95+542.294+1483.29C529.828+1497.49+517.021+1536.29+503.52+1568.85Z" />
<path d="M2682.5+1567.27C2691.02+1561.78+2736.96+1507.15+2742.31+1493.27C2737.97+1488.22+2689.56+1476.38+2674.39+1465.83C2655.88+1483.11+2576.43+1555.15+2574.99+1564.11C2593.77+1566.42+2673.86+1568.51+2682.5+1567.27Z" />
</g>
<g id="rings">
<path d="M1235.25+566.622C1023.65+806.331+786.451+676.9+786.451+676.9C786.451+676.9+728.436+718.838+733.51+716.3C822.543+787.869+1061.01+820.64+1278.22+620.771C1260.19+604.696+1252.07+586.757+1235.25+566.622Z" />
<path d="M2173.98+556.881C2002.01+734.665+1809.96+707.419+1741.85+674.753C1718.09+695.319+1697.43+706.23+1684.07+720.85C1754.38+776.566+2053.07+793.072+2217.66+615.286C2205.28+597.596+2189.6+574.761+2173.98+556.881Z" />
<path d="M636.138+1009C709.292+911.615+893.654+816.08+1089.71+889.419C1096.79+887.647+1144.68+848.695+1139.64+851.308C1022.42+776.667+760.883+768.314+593.216+961.184C607.367+980.241+617.106+993.072+636.138+1009Z" />
<path d="M1573+999.239C1707.3+865.386+1807.4+821.093+2036.33+876.888C2044.87+874.04+2081.64+843.655+2076.57+846.191C1972.91+753.14+1661.5+792.447+1543.31+963.022C1543.67+957.585+1570.82+999.601+1573+999.239Z" />
<path d="M1169.38+943.834C1271.18+1024.35+1372.55+1154.88+1293.38+1378.82C1318.61+1409.35+1337.09+1436.99+1334.55+1431.92C1422.44+1254.27+1405.3+1069.34+1235.31+898.239C1240.75+898.598+1169.02+941.66+1169.38+943.834Z" />
<path d="M1636.47+1527.52C1437.46+1333.09+1503.89+1177.99+1520.03+1102.07C1521.68+1094.33+1471.68+1039.13+1472.25+1051.49C1419.99+1147.05+1379.93+1365.9+1576.9+1562.95C1574.54+1562.79+1591.51+1565.75+1598.82+1560.69C1602.54+1558.11+1636.67+1528.76+1636.47+1527.52Z" />
<path d="M699.561+1548.33C529.844+1402.78+539.534+1236.64+573.543+1101.03C574.199+1094.46+535.825+1054.67+538.356+1059.75C465.724+1180.73+464.068+1377.24+625.801+1570.18C622.325+1569.94+672.421+1571.94+675.961+1568.99C686.254+1560.41+699.691+1549.11+699.561+1548.33Z" />
<path d="M2571.75+1537.26C2391.92+1354.71+2418.82+1178.63+2461.51+1098.14C2457.93+1091.09+2432.59+1061.35+2419.71+1048.48C2341.94+1170.43+2331.48+1394.48+2517.51+1565.82C2527.63+1565.59+2540.12+1566.9+2550.06+1563.53C2553.88+1562.24+2571.93+1538.37+2571.75+1537.26Z" />
<path d="M681.376+630.021C533.111+459.61+517.716+380.586+568.083+193.9C546.72+172.119+531.766+160.588+520.23+146.494C465.582+290.463+430.155+429.729+628.285+664.199C646.353+652.242+681.736+632.197+681.376+630.021Z" />
<path d="M1634.79+623.312C1469.52+459.829+1490.54+328.619+1519.61+182.631C1510.21+169.199+1494.08+149.051+1481.54+135.62C1414.4+263.705+1401.46+486.263+1586.54+659.868C1600.76+646.981+1615.98+637.126+1634.79+623.312Z" />
<path d="M2575.35+619.555C2392.66+443.442+2436.32+321.426+2458.66+173.425C2458.3+174.147+2424.36+127.564+2426.89+132.642C2354.26+253.628+2346.83+493.265+2525.91+653.135C2520.47+652.767+2575.71+621.73+2575.35+619.555Z" />
<path d="M2119.39+931.532C2215.07+1034.24+2250.59+1084.64+2261.04+1144.48C2284.48+1278.66+2250.74+1317.51+2230.9+1377.2C2241.9+1379.95+2277.35+1438.48+2274.81+1433.4C2353.57+1253.52+2369.18+1088.94+2171.86+892.242C2177.29+892.601+2119.03+929.357+2119.39+931.532Z" />
<path d="M2142.46+7.61398C2142.02+23.7348+2140.67+20.7634+2144.37+33.9981C2289.54+136.636+2298.31+355.567+2242.87+471.227C2257.65+483.315+2276.01+500.327+2287.2+513.611C2346.75+427.158+2398.2+210.413+2218.59+6.70234C2202.47+5.81014+2142.1+5.43935+2142.46+7.61398Z" />
<path d="M1184.07+32.7816C1334.43+193.156+1347.29+368.722+1287.42+472.715C1302.89+496.03+1326.81+521.228+1336.77+537.808C1439.55+361.868+1408.76+201.684+1272.57+7.84067C1246.82+7.78088+1228.45+3.94018+1219.16+4.29158C1204.96+20.1778+1197.28+26.1598+1184.07+32.7816Z" />
<path d="M241.873+948.127C289.857+996.364+360.704+1081.71+380.909+1153.87C402.299+1230.27+398.981+1304.13+360.394+1387.52C382.009+1404.37+389.792+1416.47+407.95+1437.65C468.869+1308.5+487.841+1094.44+290.141+919.756C295.578+920.115+241.509+945.953+241.873+948.127Z" />
<path d="M245.626+27.6753C392.751+198.372+398.036+352.027+341.784+461.55C345.625+468.695+383.624+515.316+396.322+525.382C440.511+407.176+486.991+193.512+308.222+6.64944C294.213+4.46357+289.835+3.1512+268.822+3.15562C258.756+12.3508+245.432+26.5132+245.626+27.6753Z" />
<path d="M779.521+130.906C789.348+140.729+797.896+159.522+803.728+173.06C788.504+188.572+731.28+269.32+733.892+347.79C721.472+353.903+702.68+367.149+680.448+371.212C675.753+300.089+685.13+198.419+779.521+130.906Z" />
<path d="M2673.2+131.793C2674.53+121.412+2693.58+160.265+2695.35+167.112C2652.51+225.002+2622.56+256.773+2616.84+363.781C2594.79+370.484+2583.24+380.954+2567.28+386.462C2558.32+298.298+2571.29+212.746+2673.2+131.793Z" />
<path d="M2659.58+1038.96C2670.76+1057.03+2675.03+1064.58+2688.14+1096.43C2656.97+1108.93+2617.24+1207.17+2621.94+1268.31C2610.36+1274.18+2574.22+1290.94+2567.98+1296.2C2541.36+1205.54+2605.72+1081.35+2659.58+1038.96Z" />
<path d="M1715.89+1040.97C1725.95+1055.05+1734.51+1070.14+1744.07+1089.76C1706.35+1134.54+1678.18+1173.29+1682.23+1259.32C1663.11+1265.36+1654.56+1268.88+1634.66+1280.43C1624.86+1201.47+1626.35+1091.29+1715.89+1040.97Z" />
<path d="M1733.65+132.636C1743.5+142.038+1752.93+157.131+1754.7+163.977C1722.02+188.165+1672.33+265.197+1683.09+352.068C1682.43+352.51+1656.23+364.612+1634.29+371.781C1613.67+264.762+1671.86+173.399+1733.65+132.636Z" />
<path d="M771.448+1037.27C777.064+1046.97+799.407+1077.2+809.377+1100.91C781.207+1136.66+732.418+1175.5+744.464+1264.84C743.802+1265.28+706.668+1283.75+685.02+1291.31C667.471+1178.6+710.409+1096.12+771.448+1037.27Z" />
<path d="M878.614+74.4977C878.229+75.0754+908.378+133.526+908.956+134.296C1008.91+132.993+1036.26+171.433+1079.84+200.472C1102.48+192.351+1117.85+179.105+1132.38+167.568C1029.4+53.9615+929.446+67.225+878.614+74.4977Z" />
<path d="M1817.94+981.464C1817.56+982.042+1840.07+1027.59+1840.65+1028.36C1899.01+1029.86+1958.89+1056.78+2032.35+1106.3C2047.44+1097.24+2072.59+1087.18+2086.68+1078.62C1976.98+982.552+1944.28+980.043+1817.94+981.464Z" />
<path d="M1829.47+77.0887C1835.74+88.2823+1853.08+111.69+1853.65+112.46C1943.22+127.218+1987.11+145.569+2039.51+190.338C2054.71+187.504+2082.53+168.613+2082.49+166.147C2025.6+87.7946+1903.35+41.2492+1829.47+77.0887Z" />
<path d="M873.616+996.87C885.304+1018.17+895.727+1038.02+896.305+1038.79C1011.77+1040.83+1042.36+1080.34+1097+1105.41C1122.09+1092.01+1135.14+1086.85+1143.39+1080.32C1042.68+960.752+928.921+985.564+873.616+996.87Z" />
<path d="M1184.51+270.506C1170.84+278.626+1153.76+288.881+1137.96+294.438C1137.54+337.155+1134.99+416.183+1066.51+481.433C1075.63+503.339+1091.44+528.539+1105+538.141C1152.09+491.79+1227.26+391.388+1184.51+270.506Z" />
<path d="M1188.69+1173.5C1163.69+1182.28+1142.04+1195.69+1135.17+1199.47C1133.12+1273.01+1149.28+1323.17+1060.68+1388.92C1067.17+1398.45+1087.45+1430.4+1105.66+1436.93C1130.4+1411.15+1227.66+1298.6+1188.69+1173.5Z" />
<path d="M2133.72+1170.2C2127.65+1169.78+2089.19+1189.63+2077.77+1194.89C2081.79+1304.4+2060.66+1323.25+2001.3+1395.77C2001.98+1403.26+2021.85+1431.81+2034.43+1440.36C2095.8+1373.94+2153.74+1330.08+2133.72+1170.2Z" />
<path d="M2139.83+262.412C2124.61+271.371+2100.43+280.332+2084.76+288.844C2084.77+354.222+2077.17+410.647+2002.4+472.459C2012.7+496.19+2021.66+514.548+2027.04+523.502C2106.74+477.81+2175.26+375.694+2139.83+262.412Z" />
<path d="M252.185+1206.99C236.737+1207.74+218.153+1216.39+201.297+1220.71C209.089+1275.6+200.32+1345.19+121.284+1406.15C133.479+1425.6+147.315+1446.78+160.285+1460.18C203.495+1398.79+256.22+1362.91+252.185+1206.99Z" />
<path d="M243.003+266.016C221.163+274.58+208.47+284.213+193.58+288.183C202.356+354.257+174.355+431.309+123.173+487.615C134.973+509.239+142.857+527.624+153.863+539.877C205.009+479.894+275.039+422.095+243.003+266.016Z" />
<path d="M770.616+442.745C799.245+479.903+865.468+532.004+959.564+522.372C969.2+529.181+986.792+561.881+999.505+578.248C889.406+608.891+766.368+556.374+706.973+470.525C719.36+465.396+747.123+449.157+770.616+442.745Z" />
<path d="M792.253+1375.83C828.341+1402.28+891.234+1438.69+973.941+1431.43C981.613+1449.67+994.676+1471.31+1005.82+1486.3C919.426+1503.98+809.806+1502.62+729.626+1400.2C747.928+1393.7+778.164+1376.52+792.253+1375.83Z" />
<path d="M1723+1362.95C1771.3+1404.19+1853.96+1426.87+1915.23+1424.05C1921.74+1445.41+1928.78+1455.98+1939.35+1478.61C1848.8+1493.73+1753.21+1473.12+1671.85+1388.13C1669.27+1392.65+1703.88+1367.98+1723+1362.95Z" />
<path d="M1719.83+446.994C1770.44+484.598+1838.07+519.96+1898.52+511.887C1910.17+531.14+1930.16+576.381+1927.64+572.333C1841.5+590.643+1728.81+548.642+1668.79+476.111C1677.3+470.288+1693.42+459.537+1719.83+446.994Z" />
<path d="M5.74183+78.5065C64.4038+85.9361+130.51+106.059+189.621+165.583C178.681+184.847+156.357+194.482+140.162+202.803C97.6922+172.606+87.3861+161.913+4.87894+138.48C6.62455+112.652+7.06103+106.523+5.74183+78.5065Z" />
<path d="M297.835+571.805C316.662+588.874+316.663+591.501+333.741+616.888C272.029+679.939+227.831+754.368+16.8324+774.112C15.5141+750.035+11.1544+737.235+13.7549+711.512C113.564+705.8+205.927+681.266+297.835+571.805Z" />
<path d="M10.6521+528.965C10.6521+528.965+11.4752+567.387+11.9773+585.436C16.0239+584.43+40.432+585.43+51.3758+584.115C40.4283+567.92+37.7998+558.727+27.2868+527.21C18.5317+528.088+10.6521+528.965+10.6521+528.965Z" />
<path d="M615.888+9.77779C603.931+27.2945+600.514+31.5669+591.119+45.2385C597.958+64.4599+609.068+80.6902+628.294+94.7829C637.035+85.6972+682.106+38.8117+720.546+9.32858C697.051+10.1879+624.398+7.65576+615.888+9.77779Z" />
<path d="M1550.17+43.6997C1560.33+31.2664+1567.05+31.7128+1577.46+7.95036C1596.6+8.42099+1639.58+4.38175+1662.36+9.91823C1650.34+34.8298+1596.61+77.8298+1587.41+102.768C1577.36+82.3118+1560.78+58.582+1550.17+43.6997Z" />
<path d="M2501.59+42.3845C2519.64+26.8591+2534.04+14.5163+2539.85+6.64069C2558.62+7.35867+2600.13+5.54509+2605.9+11.3193C2579.92+36.2315+2550.33+60.4226+2534.09+86.0546C2517.12+65.8441+2519.65+67.6484+2501.59+42.3845Z" />
<path d="M2814.04+65.4494C2804.09+63.9788+2787.48+65.0652+2768.09+69.0339C2778.83+98.6369+2785.33+105.494+2792.88+123.332C2802.37+127.021+2805.54+123.538+2813.97+126.491C2811.86+122.274+2816.07+73.7688+2814.04+65.4494Z" />
<path d="M2670.1+444.961C2698.05+476.586+2751.84+511.95+2812.49+520.6C2807.8+533.596+2804.19+568.611+2803.52+579.374C2741.02+569.707+2672.43+543.01+2615.28+475.024C2624.41+465.412+2652.92+453.494+2670.1+444.961Z" />
<path d="M2671.03+660.773C2661.56+669.215+2636.32+687.286+2622.43+703.038C2658.33+725.034+2721.57+749.107+2808.44+759.801C2809.58+742.604+2807.69+707.94+2808.43+698.66C2764.86+695.134+2687.5+665.967+2671.03+660.773Z" />
<path d="M2809.8+807.916C2811.38+822.44+2809.17+853.699+2806.07+864.506C2699.29+857.618+2540.65+967.701+2524.15+1001.63C2509.88+981.321+2502.93+969.64+2488.4+941.226C2536.39+915.01+2623.51+815.218+2809.8+807.916Z" />
<path d="M2813.05+973.74C2811.67+983.412+2810.69+1031.05+2813+1045.5C2805.91+1047.45+2797.89+1049.77+2788.05+1052.44C2780.8+1036.31+2770.61+1020.87+2749.91+984.739C2764.69+979.48+2796.23+974.875+2813.05+973.74Z" />
<path d="M2659.07+1369.37C2648.81+1375.36+2622.54+1388.83+2611.12+1396.22C2647.51+1438.76+2736.87+1478.82+2806.99+1482.4C2810.78+1459.75+2810.45+1433.14+2810.12+1424.93C2706.77+1408.96+2678.71+1378.63+2659.07+1369.37Z" />
<path d="M2180.03+1469.39C2198.45+1498.18+2211.54+1513.27+2220.59+1531.05C2203.5+1547.48+2198.47+1553.02+2190.33+1563.61C2149.16+1565.1+2096.69+1566.48+2089.84+1564.2C2132.56+1535.93+2149.66+1506.74+2180.03+1469.39Z" />
<path d="M1233.01+1480.35C1243.4+1492.56+1241.62+1496.71+1272.62+1532.39C1254.03+1543.45+1260.23+1547.88+1253.15+1562.04C1208.01+1566.92+1121.5+1564.76+1115.59+1567.63C1161.03+1537.02+1210+1490.39+1233.01+1480.35Z" />
<path d="M305.819+1481.86C324.109+1496.45+339.747+1515.33+352.03+1531.61C342.704+1540.1+333.629+1545.29+327.503+1570.5C305.539+1571.66+244.594+1573.41+224.08+1571.95C264.903+1540.98+296.016+1505.97+305.819+1481.86Z" />
<path d="M36.663+1444.64C35.4551+1439.82+20.9309+1442.06+21.5349+1445.08C21.1741+1456.02+22.8429+1498.68+23.2772+1508.62C26.2951+1512.24+48.3458+1503.86+56.7369+1499.09C55.2601+1497.37+41.855+1469.28+36.663+1444.64Z" />
<path d="M155.46+1124.33C171.812+1111.44+191.331+1102.71+204.295+1092.34C172.736+1060.36+79.3595+995.544+21.8724+995.124C20.5776+1004.2+18.4254+1046.68+18.4275+1056.93C37.4461+1058.23+110.496+1070.31+155.46+1124.33Z" />
<path d="M138.462+895.618C164.914+862.398+174.423+862.396+193.682+848.524C142.861+819.612+67.1426+798.591+19.2386+803.645C20.1076+824.824+18.3837+849.03+19.8464+869.385C78.0355+865.874+123.425+887.476+138.462+895.618Z" />
</g>
<g id="background_clear">
<path d="M762.173+305.088C803.973+310.508+954.88+288.762+919.025+160.658C924.453+156.314+947.796+157.937+954.31+156.85C960.295+221.991+948.919+337.62+1115.57+303.928C1117.2+309.356+1117.75+345.727+1112.86+347.356C1067.26+325.109+898.443+379.972+960.896+500.471C952.753+499.93+922.896+498.308+919.095+492.88C915.287+454.339+898.97+303.974+751.325+347.433C751.325+347.433+755.657+299.661+762.173+305.088Z" />
<path d="M1709.44+301.557C1766.83+301.361+1914.72+292.305+1861.99+142.685C1867.42+138.342+1889.83+147.841+1896.35+146.754C1894.33+233.505+1948.78+323.738+2057.94+294.895C2059.57+300.323+2069.24+336.349+2064.36+337.978C1985.18+337.413+1860+368.588+1899.04+494.048C1890.9+493.507+1867.91+494.535+1864.11+489.107C1871.67+447.185+1848.76+322.352+1705.54+338.976C1705.54+338.976+1702.93+296.13+1709.44+301.557Z" />
<path d="M1702.44+1211.31C1764.54+1217.08+1885.25+1188.52+1849.35+1050.83C1854.78+1046.49+1891.82+1055+1898.34+1053.91C1899.51+1137.22+1911.1+1233.64+2060.36+1203.91C2061.99+1209.34+2059.09+1267.85+2054.2+1269.48C1999.43+1267.17+1879.87+1274.14+1908.05+1407.2C1899.91+1406.66+1862.87+1405.31+1859.07+1399.88C1847.87+1357.46+1857.49+1224.39+1699.36+1249.88C1699.36+1249.88+1695.92+1205.89+1702.44+1211.31Z" />
<path d="M766.087+1210.28C814.428+1209.11+937.905+1226.26+906.711+1063.19C912.139+1058.84+934.851+1062.23+941.365+1061.14C939.345+1149.38+978.092+1224.21+1112.33+1197.69C1113.96+1203.11+1121.89+1252.55+1117.01+1254.18C1081.48+1241.96+906.46+1253.35+968.521+1410.88C960.378+1410.34+918.739+1414.28+914.938+1408.85C915.504+1331.39+867.144+1239.67+758.527+1263.28C758.527+1263.28+759.572+1204.85+766.087+1210.28Z" />
<path d="M-0.148962+197.072C5.2786+192.728+10.4893+198.473+17.0033+197.386C25.5937+265.676+73.5694+327.921+176.794+299.948C178.424+305.376+179.151+359.304+174.266+360.934C126.935+345.698-3.28936+367.642+23.74+512.794C15.5972+512.253+11.3415+516.637+7.54039+511.209C6.26819+503.269+1.12277+202.789-0.148962+197.072Z" />
<path d="M2651.62+297.61C2676.69+308.665+2849.49+314.528+2799.72+152.205C2805.45+151.576+2807.18+153.788+2820.73+158.109C2825.02+241.972+2812.92+477.153+2816.86+487.655C2808.72+487.114+2800.97+489.148+2797.17+483.721C2807.67+462.055+2794.51+324.857+2637.62+352.461C2637.62+352.461+2633.69+351.197+2651.62+297.61Z" />
<path d="M2641.93+1229.89C2669.63+1230.5+2836.45+1202.77+2790.87+1071.04C2796.3+1066.7+2808.98+1067.2+2815.49+1066.11C2813.65+1073.5+2818.64+1393.6+2819.26+1400.38C2811.11+1399.83+2805.82+1399.04+2802.02+1393.61C2802.01+1363.44+2771.82+1229.25+2640.19+1263.07C2640.19+1263.07+2635.41+1224.47+2641.93+1229.89Z" />
<path d="M271.377+1190.41C276.53+1183.11+349.115+1126.82+350.404+1128.54C371.457+1148.29+396.83+1283.6+348.736+1369.09C347.019+1370.81+270.544+1317.13+267.537+1315.42C279.126+1272.46+271.385+1231.22+271.377+1190.41Z" />
<path d="M1210.39+1166.7C1215.54+1159.39+1278.74+1106.45+1280.02+1108.17C1301.08+1127.93+1321.98+1272.03+1280.32+1352.71C1278.6+1354.43+1214.79+1299.52+1211.78+1297.8C1223.37+1254.85+1217.26+1207.3+1210.39+1166.7Z" />
<path d="M2155.02+1162.28C2160.17+1154.98+2223.81+1106.49+2225.1+1108.21C2246.15+1127.96+2265.11+1268.14+2217.02+1353.64C2215.3+1355.36+2153.51+1294.37+2150.5+1292.65C2162.09+1249.69+2155.03+1203.09+2155.02+1162.28Z" />
<path d="M2161.81+247.843C2166.96+240.539+2226.16+197.041+2227.45+198.759C2248.5+218.515+2270.29+358.616+2222.19+444.11C2220.48+445.828+2164.18+394.781+2161.18+393.063C2180.4+352.61+2176.4+281.658+2161.81+247.843Z" />
<path d="M1208.83+254.014C1213.98+246.71+1270.96+204.181+1272.25+205.899C1293.31+225.655+1323.19+369.277+1275.09+454.771C1259.76+461.048+1218.14+394.458+1215.13+392.74C1226.72+349.781+1217.9+295.84+1208.83+254.014Z" />
<path d="M269.906+249.679C275.059+242.375+314.172+211.719+324.562+203.585C345.615+223.341+377.224+359.342+329.13+444.836C327.412+446.555+281.204+406.085+269.907+394.341C277.66+346.649+268.559+291.243+269.906+249.679Z" />
<path d="M662.949+381.143C637.46+401.935+611.971+421.551+582.952+438.814C558.628+403.913+550.374+316.846+586.829+223.495C588.55+221.779+663.453+278.231+666.457+279.955C651.955+323.492+657.056+334.865+662.949+381.143Z" />
<path d="M1607.61+384.292C1602.44+391.586+1541.98+430.642+1540.69+428.922C1528.83+393.371+1506.51+306.236+1539.95+210.723C1541.67+209.008+1608.06+264.754+1611.07+266.478C1599.92+306.913+1600.63+335.495+1607.61+384.292Z" />
<path d="M2542.47+397.176C2537.3+404.47+2496.44+434.291+2480.63+443.228C2459.62+423.431+2436.45+292.937+2484.71+207.536C2486.43+205.821+2546.3+255.273+2549.31+256.997C2537.64+299.934+2536.96+347.703+2542.47+397.176Z" />
<path d="M2546.36+1306.27C2541.19+1313.56+2477.23+1354.75+2475.94+1353.03C2454.93+1333.23+2426.02+1203.89+2474.28+1118.48C2476+1116.77+2547.98+1170.17+2550.98+1171.89C2534.2+1210.95+2541.09+1260.33+2546.36+1306.27Z" />
<path d="M1612.46+1287.44C1607.3+1294.73+1541.09+1344.6+1539.8+1342.88C1518.64+1316.21+1505.5+1208.35+1536.07+1119.79C1537.79+1118.08+1609.21+1172.33+1612.21+1174.06C1603.94+1222.58+1604.86+1244.43+1612.46+1287.44Z" />
<path d="M670.271+1300.97C665.103+1308.26+591.853+1357.59+590.567+1355.87C576.323+1313.34+562.677+1203.66+592.255+1118.71C593.977+1116.99+666.357+1172.11+669.361+1173.83C657.689+1216.77+659.942+1260.85+670.271+1300.97Z" />
<path d="M870.998+974.346C854.427+960.794+808.285+908.648+809.986+907.336C829.459+886.022+985.169+860.331+1071.3+907.281C1073.04+908.976+1005.21+966.769+1003.53+969.799C960.425+958.783+915.426+965.299+870.998+974.346Z" />
<path d="M1802.18+957.447C1794.81+952.391+1751.72+893.21+1753.42+891.898C1790.4+875.92+1898.82+862.45+2009.77+893.525C2011.51+895.22+1949.27+965.313+1947.59+968.342C1904.48+957.327+1842.99+956.894+1802.18+957.447Z" />
<path d="M1939.8+591.838C1947.19+596.864+1964.33+638.022+1976.64+653.663C1957.25+675.055+1846.88+701.009+1760.57+654.403C1758.82+652.715+1807.52+592.818+1809.19+589.781C1852.34+600.624+1892.56+599.49+1939.8+591.838Z" />
<path d="M1007.05+600.769C1014.44+605.795+1056.98+661.133+1055.28+662.451C1035.89+683.843+895.534+705.563+809.22+658.957C807.472+657.27+879.872+608.087+881.538+605.05C924.691+615.893+972.304+608.576+1007.05+600.769Z" />
<path d="M1991.21+7.81566C1966.51+36.2096+1969.11+36.2091+1956.76+54.6319C1898.9+43.592+1876.57+42.7298+1817.85+57.6951C1795.74+36.4623+1793.36+26.4942+1781.22+8.94343C1827.37+6.1165+1936.16+5.44347+1991.21+7.81566Z" />
<path d="M2603.7+169.364C2621.63+152.117+2644.23+128.927+2663.8+109.466C2646.79+88.0323+2623.01+65.4348+2604.6+45.3994C2573.73+73.4843+2569.07+81.4078+2541.82+105.298C2561.75+137.799+2591.81+160.046+2603.7+169.364Z" />
<path d="M2808.5+41.4704C2815.6+30.6918+2810.08+31.7444+2817.91+5.56707C2779.84+6.77963+2741.47+4.68488+2717.86+6.75658C2730.22+23.3138+2737+37.2797+2750.41+52.2596C2775.12+48.3116+2794.84+50.936+2808.5+41.4704Z" />
<path d="M2808.17+675.747C2809.24+655.53+2807.62+634.598+2809.41+599.89C2775.59+594.887+2779.71+599.717+2749.83+586.484C2721.92+616.904+2716.38+625.851+2695.27+646.251C2725.69+664.136+2774.71+678.259+2808.17+675.747Z" />
<path d="M2587.97+597.274C2621.58+577.285+2636.89+561.408+2657.61+544.97C2638.75+530.968+2616.33+506.883+2592.61+487.466C2562.55+512.683+2558.63+516.606+2529.5+536.967C2547.81+556.385+2563.87+576.55+2587.97+597.274Z" />
<path d="M2502.74+657.354C2486.97+665.069+2467.87+671.208+2452.22+671.735C2459.1+652.105+2461.03+647.197+2471.36+624.409C2479.78+636.677+2496.26+649.293+2502.74+657.354Z" />
<path d="M2341.46+639.705C2358.17+601.953+2361.51+568.026+2399.73+529.314C2376.3+476.28+2377.74+480.102+2357.65+392.185C2334.25+477.244+2327.57+496.837+2296.04+525.513C2319.94+579.981+2332.84+590.968+2341.46+639.705Z" />
<path d="M2360.49+255.047C2379.12+223.028+2383.88+172.855+2411.59+111.209C2400.11+94.4874+2387.69+80.155+2369.04+18.0409C2341.34+71.5638+2344.2+78.7307+2318.41+107.406C2343.27+157.573+2350.44+212.522+2360.49+255.047Z" />
<path d="M2801.98+782.163C2737.74+794.277+2654.36+804.415+2602.22+840.286C2539.73+799.819+2515.09+782.003+2468.23+768.593C2502.98+758.685+2566.12+753.832+2599.97+716.514C2644.88+741.715+2683.17+759.527+2801.98+782.163Z" />
<path d="M2513.42+6.65301C2508.75+10.5291+2504.93+14.9475+2499.23+18.8565C2494.9+14.8646+2491.33+9.93814+2489.38+5.60598C2493.52+4.55063+2508.32+6.19666+2513.42+6.65301Z" />
<path d="M2269.16+5.09036L2258.44+16.8434L2247.7+4.58398L2269.16+5.09036Z" />
<path d="M2174.37+99.758C2153.81+115.853+2144.28+129.861+2106.14+154.899C2083.49+128.979+2071.86+117.361+2050.7+100.678C2072.15+75.345+2092.41+66.9973+2122.5+34.8088C2136.51+49.705+2151.12+74.1365+2174.37+99.758Z" />
<path d="M2236.8+671.462C2234+650.716+2230.41+644.732+2222.23+632.366C2212.52+627.898+2205.87+646.134+2195.7+657.507C2205.28+662.292+2215.25+668.075+2236.8+671.462Z" />
<path d="M2164.13+540.722C2152.36+554.597+2124.1+579.467+2097.93+597.009C2075.15+577.907+2053.42+554.879+2040.85+535.514C2071.47+518.233+2082.73+506.452+2102.88+487.08C2130.88+503.301+2149.21+527.9+2164.13+540.722Z" />
<path d="M1713.75+109.379C1689.54+136.582+1691.03+139.934+1659.74+166.021C1634.4+146.28+1621.36+131.753+1601.61+113.128C1619.86+88.5349+1627.68+84.0624+1660.46+46.0535C1682.44+70.2659+1695.12+87.0288+1713.75+109.379Z" />
<path d="M1714.58+548.148C1682.85+577.645+1677.51+580.735+1649.99+613.04C1618.53+583.837+1608.7+563.056+1584.54+534.974C1604.19+513.344+1606.16+519.241+1645.75+488.619C1668.51+502.096+1682.84+522.877+1714.58+548.148Z" />
<path d="M2230.08+774.992C2202.71+785.668+2136.12+806.753+2093.71+827.821C2045.87+804.358+1968.03+775.055+1914.18+773.164C1978.21+764.253+2072.1+741.089+2105.21+720.689C2137.74+746.929+2204.14+754.913+2230.08+774.992Z" />
<path d="M1840.08+781.121C1753.95+797.163+1735.93+801.674+1658.07+835.241C1598.72+801.202+1571.93+798.954+1549.64+785.689C1602.47+771.156+1639.77+746.11+1663.8+734.588C1712.13+759.615+1750.69+774.38+1840.08+781.121Z" />
<path d="M1545.31+17.617L1555.81+5.73884L1531.38+5.97238L1545.31+17.617Z" />
<path d="M1515.6+679.501C1513.7+664.475+1521.43+643.32+1532.08+631.938C1539.66+642.149+1556.15+651.482+1563.01+663.152C1547.99+673.805+1529.17+678.185+1515.6+679.501Z" />
<path d="M1403.16+657.527C1429.18+596.467+1455.67+551.535+1459.35+534.946C1447.59+494.169+1427.08+462.148+1418.08+379.439C1395.05+459.16+1382.85+487.731+1354.62+552.181C1367.89+578.74+1382.42+617.673+1403.16+657.527Z" />
<path d="M1417.7+290.791C1431.16+216.335+1449.19+139.594+1465.62+111.956C1455.34+82.7254+1437.29+62.1746+1427.01+11.2472C1414.67+11.7066+1410.56+10.7939+1404.85+11.7086C1390.01+37.5191+1387.73+54.1916+1355.54+104.215C1377.93+152.399+1409.92+227.987+1417.7+290.791Z" />
<path d="M1302.83+18.089L1311.17+5.4773L1295.1+6.29424L1302.83+18.089Z" />
<path d="M1534.05+938.357C1546.59+924.504+1550.79+915.883+1573.73+897.725C1550.55+889.634+1523.71+886.083+1512.32+881.3C1519.25+896.636+1524.34+917.628+1534.05+938.357Z" />
<path d="M1284.07+922.111C1294.82+905.684+1296.31+895.828+1304.97+876.115C1286.15+877.314+1266.44+887.173+1254.8+890.162C1264.06+899.418+1268.84+908.974+1284.07+922.111Z" />
<path d="M1309.12+689.406C1299.81+673.163+1291.51+660.134+1279.49+639.322C1276.79+640.676+1257.5+659.464+1243.79+669.113C1255.81+676.557+1282.89+685.689+1309.12+689.406Z" />
<path d="M1160.68+609.16C1186.98+591.531+1197.71+574.672+1220.18+554.234C1205.36+533.805+1190.54+525.635+1166.02+499.588C1154.02+514.149+1138.44+533.308+1113.93+556.3C1125.17+573.41+1137.69+587.2+1160.68+609.16Z" />
<path d="M1157.7+157.092C1187.1+140.095+1189.71+131.599+1218.46+109.374C1203.42+80.6227+1194.93+74.743+1170.96+43.8158C1136.11+73.4484+1125.66+88.9168+1104.75+112.011C1124.8+128.127+1132.42+133.353+1157.7+157.092Z" />
<path d="M1049.63+6.92273C1030.87+25.3619+1028.29+35.3886+1006.95+59.65C956.815+48.9875+907.008+51.5854+867.228+55.1515C852.669+32.1914+842.642+28.9592+824.526+9.88096C853.276+8.05807+1011.79+6.28385+1049.63+6.92273Z" />
<path d="M766.981+113.502C744.587+128.766+735.976+144.519+710.385+166.922C682.323+145.761+658.2+131.984+642.443+109.098C667.297+89.6492+678.616+75.1258+713.806+50.0142C733.501+79.2982+743.84+85.4491+766.981+113.502Z" />
<path d="M599.057+7.76511L585.294+21.854L575.048+11.2917L599.057+7.76511Z" />
<path d="M463.003+23.1603C473.257+69.2577+487.668+91.9843+502.402+131.358C489.603+162.094+471.692+237.009+458.898+293.036C445.118+223.889+432.299+163.706+413.402+120.492C437.086+87.8332+440.283+70.5452+463.003+23.1603Z" />
<path d="M356.394+4.93499L346.152+18.3829L333.344+6.22039L356.394+4.93499Z" />
<path d="M275.76+101.177C238.058+132.238+240.647+134.826+209.229+159.601C181.496+129.663+171.882+122.271+155.244+110.075C186.292+84.1899+191.097+77.5345+225.47+43.1462C243.221+71.9782+257.641+78.6295+275.76+101.177Z" />
<path d="M95.3329+9.532C81.6599+35.4131+77.9637+38.741+63.5505+60.5557C35.8228+55.3859+26.2108+55.0182+13.6413+54.6512C11.4183+31.3613+9.56773+21.3801+9.56446+5.85318C30.6361+3.26092+67.2349+1.40477+95.3329+9.532Z" />
<path d="M460.738+385.066C471.78+475.664+489.009+497.363+504.862+525.953C480.066+560.407+482.486+602.434+461.825+643.433C450.794+606.23+428.048+558.351+414.955+548.019C439.403+498.752+453.512+424.683+460.738+385.066Z" />
<path d="M758.949+559.371C730.691+585.286+729.593+591.724+704.003+611.043C674.949+587.339+651.076+560.336+637.097+541.182C667.711+514.482+687.021+497.677+694.87+491.394C710.264+516.044+741.986+533.937+758.949+559.371Z" />
<path d="M603.364+667.748C590.804+675.916+579.657+681.414+562.542+682.674C563.324+667.6+565.518+646.559+572.268+636.822C583.574+642.786+594.725+653.618+603.364+667.748Z" />
<path d="M368.324+678.385C352.707+677.482+330.976+668.66+323.505+659.381C329.161+649.874+333.009+647.383+345.908+638.327C354.512+651.227+362.889+663.9+368.324+678.385Z" />
<path d="M279.757+553.888C253.769+579.888+249.439+593.157+219.988+613.673C200.158+590.73+187.699+575.028+166.574+554.724C200.416+532.243+208.266+518.432+224.508+498.933C244.551+524.923+260.258+536.021+279.757+553.888Z" />
<path d="M116.51+678.172C77.087+688.858+51.6264+696.255+16.7171+689.692C17.1218+661.355+19.168+626.857+18.3425+607.145C32.3047+603.035+38.0549+605.908+60.2312+603.85C77.0756+634.648+93.5064+651.482+116.51+678.172Z" />
<path d="M319.382+785.788C260.779+805.446+271.256+807.08+212+833.941C169.757+807.102+128.173+795.651+89.2083+785.837C165.82+769.777+167.456+764.866+213.291+746.521C253.241+771.723+278.452+773.355+319.382+785.788Z" />
<path d="M339.714+938.033L357.711+888.261C357.711+888.261+323.662+898.746+317.115+906.278C319.41+920.684+339.714+938.033+339.714+938.033Z" />
<path d="M585.693+929.158L576.256+909.595L604.556+916.227L585.693+929.158Z" />
<path d="M879.479+783.061C806.465+798.798+789.696+801.946+726.118+833.402C652.742+789.747+604.528+782.77+582.517+777.883C647.847+768.437+695.005+738.381+715.616+732.438C756.847+763.173+805.062+772.596+879.479+783.061Z" />
<path d="M1254.36+782.791C1212.49+800.661+1187.42+813.424+1156.96+833.393C1095.86+799.785+1037.17+788.54+997.697+784.196C1088.58+761.826+1103.83+761.823+1140.13+741.689C1181.86+761.643+1224.49+769.889+1254.36+782.791Z" />
<path d="M62.8675+976.675C85.2947+955.797+94.3255+936.167+118.31+912.484C89.9563+900.963+50.0773+897.544+24.2173+890.696C19.8637+929.017+17.9966+939.299+18.0027+968.273C37.631+972.007+40.1238+973.876+62.8675+976.675Z" />
<path d="M284.389+1024.3C253.239+1049.23+251.06+1058.57+219.599+1081.32C197.162+1057.96+180.647+1040.52+159.146+1025.26C189.673+1000.33+207.739+980.383+223.936+966.049C237.648+985.05+261.641+999.688+284.389+1024.3Z" />
<path d="M182.254+1264.15C184.35+1251.88+183.475+1239.66+184.377+1227.22C-6.82848+1249.3+36.2024+1082.55+27.2397+1080.14C20.7796+1080.23+19.3246+1079.65+12.8409+1081.34C12.6457+1145.41+17.0579+1397.45+20.3775+1423.97C24.6382+1423.73+24.4015+1423.73+32.2128+1422.78C8.50079+1228.68+159.91+1264.69+182.254+1264.15Z" />
<path d="M463.552+921.74C486.028+985.601+511.582+1021.71+523.477+1034.04C491.335+1085.14+487.388+1167.95+471.102+1220.37C460.512+1130.08+441.562+1077.22+415.567+1038.91C462.241+971.511+452.544+937.599+463.552+921.74Z" />
<path d="M96.5467+1570.37C87.9899+1554.93+75.8869+1540.54+65.0351+1524.27C39.375+1525.53+35.4121+1529.91+23.1033+1529.29C23.5242+1546.6+22.6914+1554.32+27.7019+1571.43C49.19+1572.26+69.8432+1570.79+96.5467+1570.37Z" />
<path d="M225.933+1548.13C247.104+1534.37+268.27+1502.37+293.763+1465.43C277.531+1446.73+252.492+1437.78+227.451+1415.06C205.356+1443.2+200.567+1454.32+169.818+1484.47C187.286+1503.01+201.509+1524.49+225.933+1548.13Z" />
<path d="M367.783+1569.33L357.446+1552.66L345.304+1569.88L367.783+1569.33Z" />
<path d="M487.595+1564.15C493.899+1542.86+504.933+1515.26+525.159+1448.75C503.592+1387.77+495.181+1392.24+474.656+1287.1C456.536+1368.59+455.228+1394.35+426.853+1462.18C436.847+1486.09+448.154+1504.49+466.304+1566.52C475.504+1566+482.075+1564.94+487.595+1564.15Z" />
<path d="M711.263+1534.22C729.185+1515.02+748.596+1499.08+774.459+1466.4C754.689+1448.13+738.156+1439.79+713.517+1414.33C664.641+1446.48+668.551+1446.39+644.087+1460.98C656.458+1471.1+686.833+1505.49+711.263+1534.22Z" />
<path d="M602.622+1568.44L590.95+1548.92L579.96+1569.11L602.622+1568.44Z" />
<path d="M708.702+1080.41C729.659+1058.04+735.944+1040.92+758.3+1024.15C740.129+1004.24+718.812+981.185+702.389+966.515C677.241+996.566+658.377+1004.95+646.502+1021.73C660.48+1036.4+681.448+1062.94+708.702+1080.41Z" />
<path d="M1163.38+1066.19C1192.12+1048.52+1208.09+1029.54+1222.56+1016.57C1195.87+988.393+1188.73+985.764+1156.59+960.215C1150.2+965.854+1124.84+992.73+1105.87+1011.9C1118.27+1023.74+1138.19+1044.21+1163.38+1066.19Z" />
<path d="M1221.08+1455.86C1185.17+1486.93+1173.52+1496.88+1157.51+1507.56C1146.1+1493.49+1123.29+1471.9+1113.33+1457.09C1135.9+1432.58+1133.23+1432.34+1164.04+1396.42C1186.13+1425.05+1200.45+1433.29+1221.08+1455.86Z" />
<path d="M1058.48+1564.69C1040.97+1543.04+1035.03+1526.42+1018.71+1504.47C943.936+1522.58+909.515+1516.66+885.479+1511.91C858.78+1539.81+860.856+1533.28+820.212+1570.09C869.765+1568.3+987.269+1572.13+1058.48+1564.69Z" />
<path d="M1415.14+1564.04C1432.55+1527.62+1443.35+1497.15+1467.35+1445.2C1441.78+1388.73+1420.84+1355.46+1407.16+1266.71C1378.31+1375.96+1386.03+1386.53+1345.66+1455.42C1361.36+1484.16+1371.28+1501.35+1388.69+1564.05C1404.79+1564.81+1400.61+1563.49+1415.14+1564.04Z" />
<path d="M1408.06+1187.28C1418.8+1131.14+1435.51+1060.65+1455.51+1020.03C1429.22+977.928+1419.96+940.599+1402.63+899.987C1375.76+952.255+1372.78+973.46+1348.3+1011.09C1362.04+1036.78+1396.1+1119.19+1408.06+1187.28Z" />
<path d="M1284.48+1565.42L1269.75+1566.24L1278.34+1549.87L1284.48+1565.42Z" />
<path d="M1707.53+1019.2C1696+997.359+1673.91+972.807+1655.12+951.314C1621.92+981.004+1611.37+991.406+1586.83+1018.31C1599.58+1030.92+1625.59+1045.72+1651.88+1073.23C1678.43+1042.66+1690.07+1030.66+1707.53+1019.2Z" />
<path d="M2102.79+1064.08C2125.4+1045.29+2139.19+1027.27+2165.64+1011.17C2134.2+984.73+2120.78+967.869+2100.08+949.092C2075.56+981.677+2063.3+993.944+2041.07+1011.2C2065.1+1026.09+2075.19+1036.1+2102.79+1064.08Z" />
<path d="M2099.57+1400.21C2122.96+1418.58+2143.51+1431.1+2163.05+1452.31C2134.83+1480.38+2115.3+1509.95+2097.76+1530.16C2076.38+1498.93+2060+1482.4+2042.96+1460.69C2071.35+1437.63+2075.53+1428.44+2099.57+1400.21Z" />
<path d="M1996.65+1566.01C1980.94+1544.81+1963.86+1528.12+1948.53+1497.69C1920.65+1498.68+1875.89+1512.63+1811.09+1494.38C1791.85+1533.26+1777.72+1546.42+1764.37+1565.08C1818.96+1567.42+1939.52+1565.63+1996.65+1566.01Z" />
<path d="M1716.71+1450.58C1692.72+1432.29+1669.62+1419.1+1657.32+1398.86C1627.79+1420.31+1622.69+1425.71+1591.96+1443.26C1610.4+1463.2+1632+1488.24+1654.05+1512.82C1673.69+1498.27+1699.17+1466.18+1716.71+1450.58Z" />
<path d="M1554.63+1564.19L1542.53+1547.95L1532.52+1564.02L1554.63+1564.19Z" />
<path d="M2348.12+1556.63C2373.72+1508.68+2377.66+1501.78+2409.51+1462.37C2367.79+1403.59+2365.15+1352.36+2346.09+1278.48C2331+1374.04+2308.68+1402.29+2288+1449.26C2308.37+1487.35+2317.57+1509.68+2348.12+1556.63Z" />
<path d="M2347.35+1183.67C2364+1123.47+2363.99+1095.25+2408.53+1027.9C2373.49+984.378+2356.48+935.751+2346.27+877.94C2318.39+953.103+2328.94+950.04+2294.94+1011.6C2317.74+1057.51+2335.09+1101.37+2347.35+1183.67Z" />
<path d="M2222.49+921.496C2230.99+908.571+2232.34+903.47+2239.48+876.602C2219.42+877.627+2208.2+884.431+2195.61+889.194C2203.78+903.816+2204.8+907.216+2222.49+921.496Z" />
<path d="M2511.68+900.256C2494.8+914.964+2496.7+913.602+2482+923.681C2475.74+907.888+2470.83+904.894+2470.01+890.19C2481.45+891.549+2493.43+895.359+2511.68+900.256Z" />
<path d="M2600.34+1073.01C2614.66+1056.71+2615.22+1055.31+2650.05+1020.19C2633.47+996.036+2618.58+983.68+2601.16+960.65C2560.15+992.119+2561.56+992.961+2534.6+1012.63C2549.49+1027.8+2568.31+1049.98+2600.34+1073.01Z" />
<path d="M2809.44+952.082C2811.07+927.019+2808.62+916.122+2808.61+877.983C2771.02+884.529+2735.06+895.706+2696.38+903.069C2715.18+924.859+2717.09+935.756+2733.17+960.271C2773.48+958.9+2766.13+960.536+2809.44+952.082Z" />
<path d="M2230.88+1563.55L2219.71+1544.84L2207.56+1562.24L2230.88+1563.55Z" />
<path d="M2489.6+1566.21L2476.41+1545.72L2469.82+1564.33L2489.6+1566.21Z" />
<path d="M2585.7+1522.85C2610.42+1498.82+2613.48+1486.57+2651.16+1455.47C2626.66+1439.93+2613+1432.4+2592.03+1403.67C2541.4+1440.42+2557.18+1427.23+2526.8+1453.61C2550.12+1476.93+2556.96+1496.71+2585.7+1522.85Z" />
<path d="M2815.15+1564.69C2812.92+1543.95+2812.41+1534.36+2811.71+1504.54C2783.78+1500.61+2787.21+1504.03+2763.73+1499.07C2743.35+1528.72+2735.64+1538.14+2711.99+1564.03C2744.04+1565.22+2768.37+1565.56+2815.15+1564.69Z" />
</g>
</svg>
